<?xml version="1.0" standalone="no"?>
<!DOCTYPE svg PUBLIC "-//W3C//DTD SVG 20010904//EN"
 "http://www.w3.org/TR/2001/REC-SVG-20010904/DTD/svg10.dtd">
<svg version="1.0" xmlns="http://www.w3.org/2000/svg"
 width="248.000000pt" height="248.000000pt" viewBox="0 0 248.000000 248.000000"
 preserveAspectRatio="xMidYMid meet">
<metadata>
Created by potrace 1.14, written by Peter Selinger 2001-2017
</metadata>
<g transform="translate(0.000000,248.000000) scale(0.100000,-0.100000)"
fill="#000000" stroke="none">
<path d="M1125 2464 c-457 -78 -824 -382 -973 -804 -85 -245 -88 -563 -5 -824
112 -355 410 -653 768 -769 137 -45 230 -59 405 -63 437 -11 790 130 1029 409
22 27 41 52 41 56 0 9 -166 141 -176 141 -4 0 -44 -35 -88 -78 -210 -201 -433
-294 -721 -301 -369 -8 -679 137 -882 413 -85 115 -151 279 -172 426 -10 66
-8 294 3 340 23 102 32 133 56 195 61 155 149 274 300 405 130 114 345 207
524 227 356 40 692 -83 918 -337 l56 -63 91 69 c50 38 91 73 91 78 0 5 -17 30
-37 55 -184 227 -451 375 -768 425 -113 17 -355 17 -460 0z"/>
<path d="M922 1930 c-34 -22 -62 -44 -62 -49 0 -5 17 -30 38 -56 l38 -47 -59
-56 c-42 -41 -62 -54 -71 -47 -8 6 -31 23 -51 40 l-37 29 -24 -29 c-27 -34
-99 -177 -109 -216 -6 -25 -3 -28 47 -44 29 -10 56 -20 60 -24 4 -3 2 -39 -4
-79 l-12 -73 -65 3 -66 3 0 -60 c0 -105 26 -226 48 -224 7 0 35 8 62 18 l50
18 38 -80 c20 -44 37 -81 37 -82 0 -1 -24 -17 -54 -35 l-54 -33 21 -32 c45
-66 167 -185 189 -185 4 0 30 35 74 98 1 2 28 -13 60 -33 33 -19 65 -35 72
-35 14 0 15 -2 3 -33 -8 -21 -6 -26 14 -35 28 -13 31 -10 49 52 l14 45 -72 35
c-39 20 -87 46 -107 58 l-36 22 -31 -35 -32 -34 -56 58 -56 58 42 30 c46 34
47 22 -6 104 -9 14 -27 54 -39 88 -25 66 -26 67 -92 52 l-31 -7 -7 58 c-4 33
-8 69 -10 81 -3 20 1 22 48 25 51 3 52 3 54 38 4 48 23 142 34 162 7 14 0 20
-41 35 l-50 19 30 59 c45 93 41 91 89 60 l42 -26 22 28 c29 37 85 93 120 120
l28 22 -25 38 c-31 45 -31 50 -8 58 9 3 26 12 36 20 19 14 19 15 0 55 -10 22
-22 40 -25 40 -3 0 -34 -18 -67 -40z"/>
<path d="M1750 1919 c0 -22 5 -49 10 -60 9 -16 7 -19 -15 -19 -14 0 -42 -7
-62 -15 -30 -13 -33 -17 -23 -30 21 -25 120 -12 120 15 0 6 7 18 15 27 19 18
14 63 -9 99 -24 35 -36 30 -36 -17z"/>
<path d="M1620 1932 c0 -34 95 -96 110 -71 10 16 -17 54 -48 68 -27 13 -62 14
-62 3z"/>
<path d="M1855 1880 c-5 -7 -8 -36 -8 -63 1 -47 0 -49 -24 -44 -14 3 -42 0
-61 -5 l-36 -10 23 -19 c34 -27 92 -25 120 5 32 34 38 95 14 125 -15 19 -22
21 -28 11z"/>
<path d="M1308 1812 c-19 -4 -26 -52 -8 -52 5 0 7 7 3 16 -7 19 18 38 29 21 4
-6 10 -9 13 -6 9 10 -19 26 -37 21z"/>
<path d="M1380 1805 c-9 -10 -9 -15 -1 -15 6 0 11 5 11 11 0 6 9 8 23 4 17 -5
19 -4 7 4 -20 14 -25 14 -40 -4z"/>
<path d="M1266 1790 c7 -25 7 -25 -15 -6 -26 23 -29 20 -20 -19 6 -26 7 -27 8
-6 1 23 2 24 21 6 19 -17 20 -17 20 1 0 10 -5 26 -11 34 -8 11 -9 9 -3 -10z"/>
<path d="M1436 1794 c-13 -35 33 -54 72 -31 8 5 12 2 12 -8 0 -9 4 -14 9 -11
5 4 4 16 -2 30 l-12 25 -12 -22 -12 -22 -1 21 c0 33 -43 46 -54 18z m40 -5
c10 -17 -13 -36 -27 -22 -12 12 -4 33 11 33 5 0 12 -5 16 -11z"/>
<path d="M1929 1778 c-7 -18 -12 -45 -10 -61 2 -26 1 -28 -21 -21 -24 8 -89 7
-97 -2 -3 -2 5 -14 16 -26 28 -27 93 -28 121 -2 30 28 40 64 30 101 -12 45
-24 48 -39 11z"/>
<path d="M1178 1761 c-4 -27 -3 -29 16 -19 12 6 22 12 24 13 1 1 -6 9 -17 19
-18 16 -19 16 -23 -13z"/>
<path d="M1325 1770 c-3 -5 -2 -10 4 -10 5 0 13 5 16 10 3 6 2 10 -4 10 -5 0
-13 -4 -16 -10z"/>
<path d="M1380 1770 c8 -5 22 -9 30 -9 10 0 8 3 -5 9 -27 12 -43 12 -25 0z"/>
<path d="M1549 1778 c-4 -15 -9 -51 -6 -47 15 16 26 49 17 49 -5 0 -10 -1 -11
-2z"/>
<path d="M1571 1743 c-11 -23 -10 -25 3 -13 12 9 16 10 16 0 0 -7 7 -10 16 -6
12 5 15 2 10 -9 -3 -9 -2 -14 3 -11 12 8 21 46 11 46 -5 0 -12 -5 -15 -10 -4
-6 -11 -8 -16 -4 -5 3 -7 9 -4 14 3 5 1 11 -3 14 -5 3 -14 -6 -21 -21z"/>
<path d="M1120 1751 c0 -8 -6 -11 -15 -7 -8 3 -15 1 -15 -3 0 -18 12 -41 22
-41 6 0 5 6 -2 15 -15 17 -7 19 21 5 23 -13 24 -3 4 24 -9 12 -15 15 -15 7z"/>
<path d="M1642 1716 c-9 -19 -8 -27 4 -36 10 -9 14 -9 14 -1 0 6 -5 11 -10 11
-7 0 -7 7 0 21 7 11 10 23 7 25 -2 2 -9 -7 -15 -20z"/>
<path d="M1060 1723 c0 -6 5 -13 12 -15 16 -6 1 -28 -19 -28 -10 0 -14 6 -10
20 3 11 1 18 -4 14 -5 -3 -9 -12 -9 -19 0 -8 -6 -12 -12 -10 -7 3 -20 1 -28
-4 -12 -8 -12 -13 0 -35 7 -14 15 -24 18 -21 3 2 -1 11 -7 19 -20 24 -2 40 20
20 16 -15 19 -15 14 -2 -5 12 -1 14 19 11 33 -7 46 21 22 45 -9 9 -16 11 -16
5z"/>
<path d="M1676 1705 c-9 -26 -7 -32 5 -12 6 10 9 21 6 23 -2 3 -7 -2 -11 -11z"/>
<path d="M2001 1688 c-6 -13 -13 -38 -14 -55 -1 -18 -2 -33 -2 -33 0 0 -21 6
-46 14 -25 8 -52 10 -59 6 -22 -14 -3 -38 39 -51 36 -11 45 -10 76 7 22 12 38
29 41 44 3 14 7 30 9 35 4 15 -13 55 -23 55 -5 0 -14 -10 -21 -22z"/>
<path d="M1697 1685 c-10 -9 -15 -20 -12 -23 3 -4 10 0 15 8 7 11 10 8 10 -14
0 -20 3 -27 10 -20 5 5 6 22 2 38 -7 27 -9 28 -25 11z"/>
<path d="M1735 1670 c-3 -5 -1 -10 4 -10 6 0 11 5 11 10 0 6 -2 10 -4 10 -3 0
-8 -4 -11 -10z"/>
<path d="M1360 1650 c0 -5 -7 -10 -15 -10 -17 0 -20 -16 -5 -25 5 -3 7 -11 4
-18 -3 -8 6 -12 25 -12 17 0 27 4 24 11 -2 7 0 15 6 19 16 9 13 25 -4 25 -8 0
-15 5 -15 10 0 6 -4 10 -10 10 -5 0 -10 -4 -10 -10z"/>
<path d="M1739 1633 l-24 -28 28 24 c25 23 32 31 24 31 -2 0 -14 -12 -28 -27z"/>
<path d="M940 1611 c17 -33 12 -46 -10 -26 -22 20 -26 7 -10 -30 8 -18 9 -18
9 -2 1 10 6 15 11 12 6 -3 14 5 20 19 5 14 15 26 22 26 20 0 -14 20 -35 20
-14 0 -16 -4 -7 -19z"/>
<path d="M1754 1615 c-7 -17 3 -35 19 -34 9 0 9 2 0 6 -17 6 -17 33 0 33 7 0
19 -6 26 -12 10 -11 11 -10 6 5 -9 21 -43 23 -51 2z"/>
<path d="M2066 1581 c-9 -10 -19 -34 -22 -53 l-6 -35 -36 19 c-38 19 -82 24
-82 9 0 -18 36 -52 65 -60 66 -18 136 51 118 118 -7 26 -15 26 -37 2z"/>
<path d="M1596 1574 c-3 -8 -12 -14 -21 -14 -13 0 -14 -4 -5 -20 6 -11 8 -25
5 -30 -3 -5 7 -8 22 -7 37 3 50 40 23 67 -15 15 -19 16 -24 4z"/>
<path d="M1092 1564 c-15 -7 -20 -14 -13 -18 6 -4 11 -15 11 -24 0 -12 9 -17
29 -18 21 -1 28 3 24 13 -3 7 -1 19 5 26 17 20 -27 36 -56 21z"/>
<path d="M1794 1564 c3 -9 6 -18 6 -20 0 -12 21 -1 30 16 9 18 8 20 -16 20
-20 0 -25 -4 -20 -16z m26 -4 c0 -5 -2 -10 -4 -10 -3 0 -8 5 -11 10 -3 6 -1
10 4 10 6 0 11 -4 11 -10z"/>
<path d="M880 1550 c0 -5 9 -14 19 -19 16 -9 18 -8 14 9 -5 20 -33 29 -33 10z"/>
<path d="M1830 1521 c-24 -22 -24 -23 -2 -12 12 7 27 9 32 6 12 -7 13 5 2 20
-4 7 -17 1 -32 -14z"/>
<path d="M854 1515 c-3 -8 -3 -18 0 -24 4 -5 -3 -13 -14 -16 -29 -9 -23 -49 8
-53 27 -4 39 22 21 45 -12 15 -12 16 4 10 11 -4 16 -3 12 3 -3 6 1 13 10 16
14 6 14 8 -2 20 -23 17 -32 17 -39 -1z m26 -11 c0 -8 -4 -12 -10 -9 -5 3 -10
10 -10 16 0 5 5 9 10 9 6 0 10 -7 10 -16z m-12 -57 c2 -12 -3 -17 -17 -17 -12
0 -21 6 -21 13 0 31 32 34 38 4z"/>
<path d="M1844 1485 c-18 -13 -18 -14 6 -9 14 2 19 2 13 -2 -17 -8 -16 -39 1
-53 11 -9 18 -8 30 4 19 19 20 31 4 41 -8 5 -9 2 -5 -10 4 -10 1 -19 -9 -23
-20 -8 -28 2 -19 24 20 45 13 54 -21 28z"/>
<path d="M2101 1441 c-12 -16 -21 -36 -21 -43 0 -26 -13 -29 -35 -8 -29 27
-85 38 -85 17 0 -38 58 -71 110 -62 44 7 69 37 75 90 6 44 -15 47 -44 6z"/>
<path d="M803 1404 c-6 -17 12 -34 37 -33 9 0 11 2 3 5 -7 3 -11 11 -9 17 1 7
1 9 -1 5 -8 -15 -25 -8 -19 7 3 8 3 15 0 15 -2 0 -7 -7 -11 -16z"/>
<path d="M1880 1400 c-11 -7 -12 -10 -2 -10 9 0 11 -7 7 -19 -5 -16 -2 -18 15
-14 11 3 23 9 26 14 3 5 -2 6 -12 2 -14 -5 -15 -3 -5 15 13 24 -1 30 -29 12z"/>
<path d="M961 1372 c-46 -23 -73 -62 -76 -108 -3 -51 10 -85 46 -120 28 -26
38 -29 114 -32 l83 -4 16 31 c9 17 15 34 14 38 -2 4 -41 7 -87 8 -75 1 -86 3
-102 24 -24 30 -24 52 1 79 17 18 32 22 89 22 l67 0 23 40 22 40 -88 0 c-64 0
-97 -5 -122 -18z"/>
<path d="M1190 1250 l0 -140 35 0 35 0 0 140 0 140 -35 0 -35 0 0 -140z"/>
<path d="M1375 1383 c-110 -28 -131 -193 -32 -253 24 -15 50 -20 108 -20 73 0
76 1 89 28 8 15 14 31 15 36 0 5 -40 10 -89 11 -98 2 -116 12 -116 65 0 44 28
60 106 60 73 0 72 -1 101 68 4 9 -15 12 -78 11 -46 -1 -93 -4 -104 -6z"/>
<path d="M1581 1356 c-12 -18 -21 -36 -21 -40 0 -3 23 -6 50 -6 l50 0 0 -100
0 -100 34 0 33 0 1 63 c1 150 -3 137 40 137 34 0 41 4 61 40 l22 40 -125 0
-124 0 -21 -34z"/>
<path d="M790 1361 c0 -6 8 -11 18 -11 14 -1 12 -3 -6 -13 -27 -15 -19 -27 17
-26 23 0 23 1 6 8 -19 8 -19 8 0 19 20 11 20 11 0 18 -11 4 -23 9 -27 11 -5 2
-8 -1 -8 -6z"/>
<path d="M2121 1324 c-11 -14 -23 -35 -27 -46 -6 -19 -7 -19 -32 5 -15 14 -39
30 -54 36 -24 9 -28 8 -28 -8 0 -10 9 -30 21 -45 16 -21 29 -26 64 -26 57 0
73 7 90 41 32 61 6 94 -34 43z"/>
<path d="M1930 1321 c0 -5 -10 -11 -22 -13 -21 -3 -21 -4 5 -9 22 -5 27 -3 27
12 0 11 -2 19 -5 19 -3 0 -5 -4 -5 -9z"/>
<path d="M780 1296 c0 -2 11 -6 25 -8 14 -3 25 -1 25 3 0 5 -11 9 -25 9 -14 0
-25 -2 -25 -4z"/>
<path d="M1909 1273 c-12 -3 -17 -15 -16 -46 0 -23 2 -32 4 -19 3 15 10 22 21
20 11 -2 16 -11 14 -23 -2 -11 -1 -17 3 -13 11 11 12 68 1 77 -6 4 -18 6 -27
4z m26 -12 c3 -5 1 -12 -5 -16 -5 -3 -10 1 -10 9 0 18 6 21 15 7z"/>
<path d="M776 1239 c3 -5 17 -9 31 -9 32 0 24 11 -11 14 -14 2 -23 -1 -20 -5z"/>
<path d="M1984 1213 c3 -16 18 -40 34 -54 50 -45 133 -21 150 44 13 47 -14 48
-57 2 -32 -36 -35 -37 -47 -20 -14 19 -64 55 -77 55 -4 0 -5 -12 -3 -27z"/>
<path d="M781 1202 c-8 -15 -7 -23 4 -32 21 -18 47 -4 43 22 -4 29 -34 35 -47
10z m39 -12 c0 -11 -6 -20 -13 -20 -19 0 -27 10 -20 26 8 21 33 17 33 -6z"/>
<path d="M1899 1171 c7 -5 10 -14 7 -20 -4 -6 -12 -8 -18 -5 -7 4 -8 2 -4 -4
4 -7 19 -12 34 -11 22 0 24 2 8 8 -17 7 -17 8 -2 24 16 16 16 17 -11 17 -20 0
-24 -3 -14 -9z"/>
<path d="M1970 1116 c0 -14 12 -38 26 -55 21 -26 33 -31 69 -31 49 0 95 37 95
75 0 31 -31 23 -68 -16 -29 -32 -42 -36 -42 -16 0 16 -52 67 -68 67 -7 0 -12
-11 -12 -24z"/>
<path d="M811 1115 c-1 -17 -3 -18 -11 -5 -8 13 -10 12 -10 -2 0 -13 8 -18 26
-18 14 0 23 -4 19 -10 -3 -5 -1 -10 4 -10 6 0 11 -7 11 -15 0 -21 -27 -19 -39
3 -6 9 -11 12 -11 6 0 -18 28 -37 45 -30 17 6 20 42 5 51 -6 4 -7 11 -4 17 5
7 1 9 -9 5 -10 -4 -17 0 -20 11 -4 14 -5 13 -6 -3z"/>
<path d="M1889 1111 c11 -7 9 -10 -9 -16 -25 -8 -17 -19 20 -30 24 -7 24 -6 6
8 -19 14 -19 15 3 22 18 6 21 9 10 16 -8 5 -21 9 -29 9 -12 0 -13 -2 -1 -9z"/>
<path d="M1850 1045 c-11 -13 -11 -19 3 -32 21 -21 49 -9 45 19 -4 28 -30 35
-48 13z m40 -15 c0 -11 -6 -20 -14 -20 -18 0 -29 16 -21 30 11 18 35 11 35
-10z"/>
<path d="M1947 1044 c-3 -3 -3 -18 -1 -32 19 -102 153 -116 187 -19 10 26 -31
22 -76 -8 -27 -19 -37 -22 -37 -11 0 16 -47 76 -59 76 -4 0 -10 -3 -14 -6z"/>
<path d="M853 1010 c-4 -16 -8 -18 -19 -9 -12 10 -13 9 -8 -5 5 -13 13 -16 32
-11 36 9 48 -15 19 -38 l-22 -18 24 11 c17 9 26 9 35 0 8 -9 5 -17 -14 -32
-24 -20 -24 -20 -2 -14 18 6 22 4 20 -14 -4 -29 28 -51 42 -30 15 23 7 45 -17
48 -13 2 -20 8 -17 16 5 13 -51 116 -63 116 -3 0 -7 -9 -10 -20z m103 -131
c10 -17 -13 -36 -27 -22 -12 12 -4 33 11 33 5 0 12 -5 16 -11z"/>
<path d="M1820 987 c-12 -20 -12 -21 3 -9 12 10 21 11 36 2 28 -15 27 -6 -2
13 -22 14 -24 14 -37 -6z"/>
<path d="M1107 986 c-4 -9 -13 -16 -21 -16 -11 0 -12 -5 -3 -24 8 -16 20 -23
39 -24 16 0 26 4 22 9 -3 5 0 16 6 24 10 12 10 15 0 15 -7 0 -18 7 -25 16 -11
16 -12 16 -18 0z"/>
<path d="M1594 986 c-3 -9 -12 -16 -20 -16 -11 0 -11 -5 -3 -24 7 -14 20 -23
33 -23 13 0 26 9 33 23 6 13 7 24 3 24 -5 0 -16 7 -24 16 -15 14 -17 14 -22 0z"/>
<path d="M1797 954 c-4 -4 -7 -15 -7 -25 0 -9 -9 -19 -20 -22 -24 -6 -26 -30
-4 -47 12 -11 18 -10 31 3 14 14 14 18 2 33 -12 15 -12 16 8 10 12 -4 24 -2
28 3 3 7 0 8 -9 5 -10 -4 -18 1 -22 10 -9 24 4 32 28 17 17 -10 19 -10 16 1
-5 15 -40 23 -51 12z m-4 -69 c8 -18 -11 -31 -25 -17 -11 11 -3 32 12 32 4 0
10 -7 13 -15z"/>
<path d="M1905 940 c-18 -55 65 -131 120 -110 32 12 65 46 65 66 0 20 -43 12
-81 -16 -28 -20 -39 -17 -39 10 0 19 -37 70 -50 70 -5 0 -11 -9 -15 -20z"/>
<path d="M1360 900 c0 -5 -7 -10 -15 -10 -17 0 -20 -16 -5 -25 5 -3 7 -11 4
-19 -3 -9 5 -13 25 -13 19 0 27 5 24 13 -2 6 0 15 6 19 6 3 11 11 11 16 0 6
-5 7 -10 4 -6 -3 -13 1 -16 9 -7 18 -24 22 -24 6z"/>
<path d="M1867 883 c-10 -9 -8 -58 3 -87 12 -33 64 -60 99 -51 27 7 71 42 71
57 0 14 -59 9 -90 -7 -29 -15 -30 -15 -30 7 0 20 -34 88 -43 88 -2 0 -7 -3
-10 -7z"/>
<path d="M988 853 c6 -2 12 -11 12 -18 0 -17 -24 -26 -39 -14 -6 5 -4 1 4 -8
14 -16 16 -16 31 -1 18 18 13 48 -8 47 -10 0 -10 -2 0 -6z"/>
<path d="M1720 852 c0 -4 7 -17 15 -28 12 -14 14 -15 9 -2 -4 13 -1 16 18 12
13 -2 16 -1 8 2 -8 4 -23 11 -32 16 -10 5 -18 5 -18 0z"/>
<path d="M1800 794 c-13 -33 0 -84 25 -98 11 -6 25 -16 32 -23 24 -21 119 14
110 41 -4 13 -61 14 -94 2 -21 -7 -23 -4 -23 31 -1 35 -18 73 -34 73 -4 0 -11
-12 -16 -26z"/>
<path d="M1742 748 c-11 -14 -15 -39 -13 -75 2 -35 50 -73 91 -73 40 0 95 35
70 44 -30 11 -65 13 -87 5 -22 -8 -23 -6 -23 35 0 69 -14 92 -38 64z"/>
<path d="M1210 740 c0 -5 5 -10 10 -10 6 0 10 -13 10 -29 0 -17 5 -33 10 -36
6 -4 10 12 10 39 0 39 -3 46 -20 46 -11 0 -20 -4 -20 -10z"/>
<path d="M1276 735 c-8 -23 1 -35 27 -35 17 0 19 -2 7 -9 -8 -6 -18 -7 -22 -5
-4 3 -8 -2 -8 -10 0 -10 7 -13 23 -11 31 6 47 32 38 58 -10 27 -56 35 -65 12z
m44 -9 c0 -11 -19 -15 -25 -6 -3 5 1 10 9 10 9 0 16 -2 16 -4z"/>
<path d="M1364 735 c-8 -20 13 -45 34 -39 9 2 4 -2 -12 -9 -33 -16 -15 -29 22
-16 22 8 28 32 16 63 -8 20 -53 21 -60 1z m46 -9 c0 -11 -19 -15 -25 -6 -3 5
1 10 9 10 9 0 16 -2 16 -4z"/>
<path d="M1463 743 c-7 -2 -13 -17 -13 -33 0 -29 15 -47 39 -46 21 1 35 30 27
59 -6 26 -24 32 -53 20z m37 -33 c0 -11 -7 -20 -15 -20 -15 0 -21 21 -8 33 12
13 23 7 23 -13z"/>
<path d="M1684 712 c-18 -12 -34 -49 -34 -79 1 -35 36 -78 71 -87 28 -6 89 10
89 25 0 16 -42 31 -80 27 -22 -2 -36 1 -34 7 16 48 8 120 -12 107z"/>
<path d="M1591 654 c-21 -27 -30 -104 -12 -104 5 0 11 -9 14 -19 3 -11 17 -22
36 -26 36 -8 91 2 91 16 0 14 -60 37 -87 34 -20 -2 -22 1 -17 19 11 33 13 95
4 101 -5 3 -18 -7 -29 -21z"/>
<path d="M1529 583 c-13 -3 -16 -15 -15 -51 1 -63 -25 -66 -37 -4 -6 33 -12
42 -29 42 -19 0 -20 -4 -14 -47 7 -56 35 -85 74 -78 49 9 63 41 48 114 -6 28
-6 28 -27 24z"/>
<path d="M1161 554 c-23 -30 -23 -30 -15 -62 11 -38 86 -63 112 -37 10 9 -18
29 -41 30 -17 0 -22 6 -22 25 0 22 5 25 35 26 53 1 55 2 35 24 -27 30 -78 27
-104 -6z"/>
<path d="M1294 561 c-11 -12 -2 -31 16 -31 17 0 20 -7 20 -50 0 -43 3 -50 20
-50 21 0 23 5 20 63 -1 31 2 37 19 37 19 0 31 29 14 31 -29 4 -105 4 -109 0z"/>
</g>
</svg>
